<svg xmlns:inkscape="http://www.inkscape.org/namespaces/inkscape" xmlns:sodipodi="http://sodipodi.sourceforge.net/DTD/sodipodi-0.dtd" xmlns="http://www.w3.org/2000/svg" xmlns:svg="http://www.w3.org/2000/svg" width="5in" height="1.2in" viewBox="0 0 127 30.480001" id="svg1" xml:space="preserve" inkscape:version="1.3.2 (091e20e, 2023-11-25, custom)" sodipodi:docname="logo-orange.svg"><defs id="defs1"></defs><g inkscape:label="Layer 1" inkscape:groupmode="layer" id="layer1"><g id="g74"><path style="display:inline;fill:#f3a10f" d="m 38.094116,30.170829 c -1.487605,-0.158111 -2.93435,-0.636027 -3.99046,-1.318203 -1.450567,-0.936967 -2.010431,-1.868815 -2.010431,-3.346195 0,-0.863489 0.07217,-1.158582 0.407467,-1.666139 0.750147,-1.135529 2.514907,-2.154707 5.293927,-3.05733 0.737828,-0.239645 1.483547,-0.500535 1.657153,-0.579755 0.173607,-0.07922 0.528711,-0.208935 0.789121,-0.288258 1.39087,-0.423666 3.611074,-1.295451 3.987794,-1.565847 1.136144,-0.81548 1.221769,-1.014184 1.20499,-2.796327 -0.01389,-1.474938 -0.0607,-1.726825 -0.473472,-2.547757 -0.536635,-1.067264 -1.024726,-1.468072 -1.937049,-1.590654 -1.434863,-0.192791 -2.434823,0.755951 -3.431814,3.25604 -0.327567,0.821418 -0.806032,1.707321 -1.078282,1.996494 -0.898316,0.954156 -2.556339,1.096893 -3.731888,0.321272 -0.720623,-0.475463 -1.089979,-1.254728 -1.089979,-2.299633 0,-1.236637 0.367186,-1.858969 1.657153,-2.808654 1.839715,-1.354414 7.884664,-1.9047959 10.732037,-0.977132 1.994159,0.649689 3.191897,1.524501 4.200115,3.067708 1.275214,1.951879 1.548034,3.318614 1.555591,7.792973 0.0074,4.362406 0.487149,6.668309 1.550728,7.453038 0.351864,0.259613 0.396345,0.365004 0.252933,0.599295 -0.406416,0.663963 -3.812022,0.571762 -5.433717,-0.147108 -0.853936,-0.378536 -2.204562,-1.663808 -2.204562,-2.097889 0,-0.107543 -0.106531,-0.2841 -0.236736,-0.392349 -0.191567,-0.159264 -0.236736,-0.153897 -0.236736,0.02813 0,0.372357 -1.530336,1.97331 -2.296098,2.40205 -0.43332,0.242611 -1.184228,0.465897 -1.904118,0.566199 -1.306508,0.182036 -1.485676,0.181816 -3.233667,-0.004 z m 4.450345,-1.179607 c 1.175777,-0.415563 1.881914,-1.286659 2.494798,-3.077601 0.301198,-0.880148 0.364898,-1.487171 0.443802,-4.229169 0.05067,-1.760836 0.04915,-3.20152 -0.0034,-3.20152 -0.05252,0 -0.364979,0.183737 -0.694346,0.408305 -0.329367,0.224569 -0.989464,0.588483 -1.466882,0.808699 -2.384177,1.099736 -2.866739,1.380485 -3.574523,2.079615 -0.973367,0.961467 -1.319851,1.89411 -1.318804,3.54987 8.95e-4,1.415309 0.314473,2.281313 1.096551,3.028341 0.919287,0.878086 1.8053,1.063761 3.022775,0.63346 z m 20.580923,1.190608 c -1.995176,-0.301217 -3.893041,-1.266719 -5.281824,-2.687025 -1.020642,-1.043808 -1.09651,-1.141068 -1.541716,-1.976434 -0.602491,-1.130487 -0.81979,-1.720214 -1.048601,-2.845795 -0.417004,-2.051352 -0.441165,-2.642923 -0.174441,-4.271086 0.349621,-2.134193 1.180775,-3.841799 2.524032,-5.185623 2.416797,-2.417816 6.403061,-3.3977935 9.341437,-2.296486 0.905518,0.33939 2.211227,1.425034 2.735057,2.27409 0.185431,0.300557 0.410425,0.546468 0.499987,0.546468 0.222709,0 0.104456,-6.517418 -0.123673,-6.8161434 C 69.963533,6.8031826 69.80214,6.4030519 69.69699,6.0346162 69.588087,5.6530275 69.264708,5.1301703 68.945586,4.8197011 68.155038,4.0505898 68.264011,3.7290087 69.360991,3.5938286 70.608163,3.4401405 75.32938,2.8244854 76.027502,2.7245037 l 0.59184,-0.084761 0.0081,10.8069153 c 0.0045,5.943802 0.06847,11.269356 0.142257,11.834563 0.277505,2.125755 0.798112,3.556064 1.464544,4.023666 0.442158,0.310241 0.244405,0.7177 -0.443301,0.913393 -0.715758,0.203676 -3.351975,-0.03549 -4.328086,-0.392656 -1.077452,-0.394248 -2.083329,-1.191902 -2.432458,-1.928923 -0.313318,-0.66142 -0.444277,-0.691083 -0.780649,-0.176819 -1.259921,1.926242 -4.121885,2.915242 -7.12437,2.461947 z m 4.590778,-1.287451 c 0.832115,-0.391823 1.648324,-1.266363 2.200308,-2.357553 l 0.410271,-0.811045 -0.04964,-4.862208 c -0.03327,-3.258609 -0.107524,-4.935306 -0.225155,-5.083847 -0.09653,-0.121902 -0.223656,-0.423199 -0.28249,-0.66955 -0.21495,-0.900032 -1.187717,-2.161357 -2.228963,-2.890155 -0.62215,-0.43546 -2.068659,-0.851579 -2.960256,-0.851579 -1.970304,0 -3.582396,1.597433 -4.077675,4.040593 -0.419627,2.069975 -0.180749,5.772874 0.529773,8.212139 0.337719,1.159411 1.267872,3.100631 1.877156,3.917606 0.534429,0.716604 1.680391,1.601467 2.267603,1.750947 0.547888,0.139471 1.825864,-0.05952 2.539065,-0.395348 z m 17.82024,1.220605 c -0.0868,-0.03108 -0.583949,-0.181012 -1.104768,-0.333185 -2.77559,-0.810972 -4.212777,-2.262831 -4.231673,-4.274873 -0.0079,-0.842851 0.05868,-1.091766 0.439292,-1.641948 0.61524,-0.889342 1.930977,-1.795817 3.476733,-2.395288 0.896563,-0.347703 3.946577,-1.426063 4.497986,-1.590304 0.303811,-0.09049 0.623405,-0.220064 0.710208,-0.287937 0.0868,-0.06787 0.406397,-0.176261 0.710209,-0.240862 0.854359,-0.181666 2.53914,-1.029154 3.014655,-1.516448 0.555864,-0.569635 0.673146,-1.160264 0.542316,-2.731088 -0.202017,-2.425524 -1.19811,-3.734609 -2.841694,-3.734609 -0.710438,0 -0.903138,0.07447 -1.48608,0.574321 -0.620327,0.531905 -0.8653,0.951288 -1.848708,3.164917 -0.121727,0.274006 -0.221323,0.576167 -0.221323,0.671469 0,0.0953 -0.253163,0.453987 -0.562586,0.797079 -1.048227,1.162289 -2.886505,1.22407 -3.999099,0.134402 -0.664499,-0.650805 -0.804333,-1.029487 -0.804333,-2.178194 0,-0.801464 0.0691,-1.016778 0.513783,-1.600808 1.08887,-1.430097 3.701511,-2.291697 7.456332,-2.458957 3.365906,-0.149935 5.817615,0.625857 7.575556,2.397129 1.989572,2.004658 2.380532,3.402456 2.513849,8.987774 0.07511,3.14649 0.154233,4.159286 0.397723,5.090532 0.35617,1.362174 0.47198,1.602475 1.01954,2.115544 0.46174,0.432655 0.53142,0.879695 0.15941,1.0227 -0.13731,0.05278 -0.98031,0.09596 -1.873333,0.09596 -2.855887,0 -4.575494,-0.819816 -5.454065,-2.600205 -0.289534,-0.586728 -0.48192,-0.587644 -0.769586,-0.0037 -0.304638,0.618437 -1.51215,1.760653 -2.288311,2.164571 -0.564065,0.293542 -0.960844,0.343945 -3.016847,0.383235 -1.302049,0.02488 -2.438382,0.01981 -2.525186,-0.01127 z m 5.228377,-1.133572 c 1.167333,-0.481943 1.849806,-1.373527 2.408783,-3.146841 0.290715,-0.922271 0.364755,-1.627047 0.44429,-4.229169 0.0685,-2.241051 0.04596,-3.12247 -0.07985,-3.12247 -0.09641,0 -0.444772,0.184065 -0.774139,0.409033 -0.329367,0.224968 -1.060485,0.621843 -1.624706,0.881945 -1.980329,0.912916 -2.254588,1.065077 -2.997795,1.663198 -1.028229,0.827502 -1.382983,1.429408 -1.58476,2.688839 -0.247432,1.544397 -0.07164,2.743567 0.534835,3.648401 0.886657,1.32285 2.282175,1.781419 3.673342,1.207064 z m 12.370631,1.069153 c -0.33849,-0.111877 -0.13107,-0.58209 0.5416,-1.227746 0.7905,-0.758758 0.94557,-1.190716 1.18629,-3.304448 0.20343,-1.786301 0.1836,-15.9894817 -0.0247,-17.7071733 -0.18604,-1.5340002 -0.59893,-2.5504237 -1.32072,-3.2512309 -0.60546,-0.5878544 -0.67378,-0.8498987 -0.26571,-1.0191062 0.23923,-0.099196 3.08211,-0.4788066 6.31274,-0.8429441 1.79079,-0.2018456 1.59964,-1.4752434 1.66241,11.0745415 0.0567,11.339071 0.12651,12.683717 0.73045,14.07398 0.16147,0.371706 0.5148,0.884788 0.78518,1.140182 0.83908,0.792578 0.69064,0.994751 -0.81045,1.103796 -1.2919,0.09385 -8.49121,0.06124 -8.79707,-0.03985 z m 16.41989,0.01322 c -3.153,-0.03015 -4.68236,-0.100142 -4.75483,-0.217608 -0.17276,-0.28001 0.009,-0.707884 0.50003,-1.179492 0.25257,-0.242398 0.45921,-0.528202 0.45921,-0.63512 0,-0.106917 0.0706,-0.21811 0.15697,-0.247095 0.0863,-0.02898 0.3055,-0.550714 0.48703,-1.159398 0.30918,-1.036655 0.33468,-1.576989 0.40299,-8.537388 l 0.0729,-7.430689 3.07,-0.04287 3.07,-0.04287 0.003,7.078307 c 0.002,3.893068 0.0702,7.542461 0.15213,8.109761 0.17719,1.226565 0.49316,1.934918 1.19719,2.68389 0.28608,0.304342 0.56787,0.747928 0.62622,0.985747 0.0905,0.369007 0.0443,0.455924 -0.31528,0.592874 -0.23174,0.08826 -0.43448,0.143807 -0.45053,0.123434 -0.016,-0.02037 -2.12078,-0.05704 -4.67718,-0.08149 z M 0.3903133,29.691244 c 0,-0.183134 0.17135041,-0.467991 0.3807787,-0.633015 C 1.2933213,28.646726 1.8182249,27.502851 2.1773838,25.993626 2.4433421,24.876039 2.4871462,23.904317 2.5515926,17.692433 2.6216255,10.942063 2.5641733,9.4798163 2.1363803,7.1246407 2.0519977,6.6600795 1.9184886,6.1976377 1.8396936,6.0969922 1.7608985,5.9963468 1.6513203,5.7245259 1.5961864,5.4929458 1.5410525,5.2613657 1.2108943,4.7656701 0.86250153,4.3914 0.51410877,4.01713 0.25346716,3.6374454 0.28329797,3.5476566 0.34282295,3.3684902 7.6686008,3.2244241 8.5569584,3.3849498 c 0.4162582,0.075218 0.5714317,0.2228486 0.8285764,0.7883022 0.1740194,0.3826636 0.316399,0.7617564 0.316399,0.8424284 0,0.1303056 0.3940382,1.1231778 0.7957252,2.0050184 0.07922,0.1739098 0.257003,0.671924 0.395078,1.1066984 0.138075,0.4347743 0.423775,1.1533144 0.63489,1.5967557 0.211114,0.4434411 0.383844,0.8689361 0.383844,0.9455431 0,0.125118 0.338424,1.042681 0.869993,2.358794 0.105361,0.260865 0.353934,0.901169 0.552384,1.422898 0.19845,0.521729 0.456745,1.172785 0.573989,1.446791 0.117244,0.274006 0.213171,0.547834 0.213171,0.608506 0,0.06067 0.09725,0.334499 0.216106,0.608505 0.118859,0.274006 0.382202,0.93842 0.585207,1.476475 0.426734,1.131038 0.855482,1.403219 1.021029,0.648175 0.100098,-0.456541 0.391999,-1.195861 1.031617,-2.612857 0.166387,-0.368611 0.302522,-0.733368 0.302522,-0.810571 0,-0.0772 0.206722,-0.664925 0.459382,-1.306047 0.25266,-0.641121 0.718166,-1.841552 1.034457,-2.667623 0.316292,-0.826072 0.677737,-1.726135 0.803211,-2.0001409 0.125475,-0.274006 0.228136,-0.583406 0.228136,-0.6875554 0,-0.1041495 0.10071,-0.4135495 0.223799,-0.6875555 0.533088,-1.1866879 0.880969,-2.0508803 0.880969,-2.1884682 0,-0.081473 0.175725,-0.5329768 0.390499,-1.0033414 0.214774,-0.4703646 0.436006,-1.0368417 0.491626,-1.2588378 0.05562,-0.2219962 0.230331,-0.4728977 0.388246,-0.5575589 0.163412,-0.087608 1.923584,-0.1539295 4.085272,-0.1539295 4.272454,0 4.264903,-0.00251 3.278694,1.0910099 -0.296602,0.328876 -0.627007,0.9475473 -0.770142,1.4420597 -0.550263,1.9010932 -0.650701,3.233765 -0.720612,9.561562 -0.104171,9.428652 0.24338,12.397135 1.599744,13.663664 0.225758,0.210806 0.41047,0.514157 0.41047,0.674114 0,0.277212 -0.237737,0.288877 -5.076726,0.249116 -3.745294,-0.03077 -5.093087,-0.09092 -5.13911,-0.229349 -0.03431,-0.103198 0.151778,-0.378786 0.413532,-0.612417 0.596077,-0.532035 1.071461,-1.950899 1.312308,-3.916801 0.09915,-0.809344 0.202806,-4.746854 0.234793,-8.919253 0.06285,-8.1977638 0.02726,-8.4901834 -0.769658,-6.3239906 -0.729607,1.9832346 -0.836713,2.2508786 -0.933212,2.3319716 -0.05174,0.04348 -0.145704,0.290016 -0.208815,0.547864 -0.06311,0.257849 -0.251599,0.769746 -0.418861,1.13755 -0.167262,0.367804 -0.306522,0.761569 -0.309468,0.875033 -0.0029,0.113464 -0.142577,0.490878 -0.310293,0.838698 -0.167716,0.347819 -0.309606,0.739116 -0.315312,0.869549 -0.0057,0.130432 -0.114647,0.375251 -0.242091,0.544041 -0.127445,0.168791 -0.231717,0.404571 -0.231717,0.523955 0,0.119385 -0.177552,0.605909 -0.39456,1.081166 -0.217008,0.475257 -0.395068,0.915354 -0.395688,0.977993 -0.0015,0.15577 -1.068663,2.978768 -1.254453,3.318571 -0.08225,0.150433 -0.268932,0.558093 -0.41485,0.905913 -0.377146,0.898994 -0.739508,1.716048 -1.39106,3.136562 -0.312655,0.681651 -0.568463,1.275631 -0.568463,1.319955 0,0.04432 -0.115298,0.323985 -0.256217,0.621469 -0.204261,0.431199 -0.300273,0.504254 -0.473472,0.36026 -0.119491,-0.09934 -0.217693,-0.296413 -0.218228,-0.437937 -5.35e-4,-0.141524 -0.09229,-0.435179 -0.203895,-0.652566 -0.111607,-0.217387 -0.408812,-0.964408 -0.660456,-1.660047 -0.251643,-0.695639 -0.550068,-1.442661 -0.663165,-1.660048 -0.113098,-0.217387 -0.20607,-0.506155 -0.206604,-0.641706 -5.35e-4,-0.135552 -0.105245,-0.384559 -0.232689,-0.55335 -0.127445,-0.16879 -0.233976,-0.399726 -0.236736,-0.51319 -0.0028,-0.113465 -0.14187,-0.50723 -0.309132,-0.875034 C 10.01968,22.013938 9.8342599,21.519155 9.7748977,21.282224 9.7155355,21.045293 9.6038133,20.812342 9.5266261,20.764554 9.4494388,20.716766 9.3838758,20.557363 9.3809305,20.410323 9.3779851,20.263284 9.2383533,19.8584 9.0706375,19.51058 8.9029217,19.162761 8.7632899,18.804352 8.7603445,18.714117 8.7573992,18.623882 8.5064164,17.950689 8.2026051,17.218134 7.8987937,16.485578 7.6502208,15.826269 7.6502208,15.753001 c 0,-0.07327 -0.1459196,-0.467248 -0.3242657,-0.875513 C 7.147609,14.469223 6.9394947,13.992898 6.8634788,13.818989 6.787463,13.645079 6.6400435,13.21821 6.5358801,12.87039 6.4317167,12.522571 6.292906,12.166846 6.227412,12.079891 6.161918,11.992936 5.889965,11.281487 5.6230721,10.498894 5.2447153,9.3894614 5.0668672,9.064866 4.8157757,9.0254749 4.5554981,8.9846426 4.4940979,9.060442 4.4956091,9.4207243 4.4966375,9.6658979 4.4173954,11.39611 4.3195156,13.26564 c -0.1816913,3.47035 -0.015319,9.661265 0.3234302,12.035216 0.2417873,1.694444 0.7391778,3.023475 1.3554858,3.621868 0.3008614,0.292116 0.5470207,0.659453 0.5470207,0.816305 0,0.265098 -0.2167779,0.285186 -3.0775695,0.285186 -3.0240242,0 -3.0775695,-0.0058 -3.0775695,-0.332971 z M 115.6808,8.0710635 c -0.93189,-0.5494257 -1.41927,-1.0541965 -2.16621,-2.243504 l -0.55075,-0.8769399 0.64827,-0.2645971 c 0.35655,-0.1455284 0.94016,-0.3097776 1.29692,-0.3649982 l 0.64864,-0.100401 0.0979,-1.2713227 c 0.0538,-0.6992274 0.13828,-1.3118105 0.18768,-1.3612956 0.0775,-0.077667 1.08509,0.1619486 2.23244,0.5309161 0.27482,0.088376 0.39041,0.018811 0.58045,-0.3493423 0.25338,-0.4908264 1.18209,-1.46811994 1.39514,-1.46811994 0.0705,0 0.45435,0.44465559 0.85298,0.98812354 0.39864,0.5434679 0.75138,1.0155469 0.78387,1.0490644 0.0325,0.033518 0.22109,-0.044759 0.41911,-0.1739468 0.44616,-0.2910844 1.97526,-0.6931375 2.11266,-0.5554942 0.0556,0.055705 0.0986,0.673562 0.0956,1.3730148 -0.005,1.098947 0.0313,1.2717324 0.26562,1.2717324 0.49516,0 2.22635,0.658347 2.22635,0.8466483 0,0.2552874 -0.96572,1.6643457 -1.51706,2.2135208 -0.24932,0.2483377 -0.80266,0.6288605 -1.22964,0.8456064 -0.70716,0.3589716 -0.89007,0.3847608 -2.05293,0.2894497 -1.56933,-0.1286265 -2.46514,-0.1302895 -4.19634,-0.00779 -1.28294,0.09078 -1.37596,0.074613 -2.13063,-0.3703245 z m 3.37882,0.062147 c 0.74235,-0.1979177 0.97894,-0.1979777 1.81497,-4.604e-4 1.62412,0.3837057 2.54111,0.2542551 3.69417,-0.5215043 0.65091,-0.4379209 1.92299,-1.9865386 1.92299,-2.3410316 0,-0.2182575 -0.89981,-0.6059499 -1.77552,-0.7649979 L 124.12439,4.3977248 V 3.1664406 c 0,-0.6772063 -0.0417,-1.2730424 -0.0926,-1.3240802 -0.12344,-0.1236589 -1.62598,0.3215083 -2.09114,0.619554 -0.20283,0.1299684 -0.38467,0.2128353 -0.40408,0.1841486 -0.0194,-0.028687 -0.26572,-0.4201999 -0.54736,-0.8700293 -0.28164,-0.4498295 -0.60914,-0.89856959 -0.72777,-0.99720023 -0.37746,-0.31381291 -0.84683,0.12558682 -1.65165,1.54621803 -0.092,0.1623905 -0.36006,0.1232495 -1.27908,-0.1867697 -0.63948,-0.2157182 -1.21904,-0.3573286 -1.28791,-0.3146896 -0.0689,0.042639 -0.12522,0.6381266 -0.12522,1.3233058 v 1.2457803 l -0.74967,0.097022 c -0.80457,0.1041275 -1.77805,0.4727283 -1.77152,0.6707686 0.002,0.066623 0.27215,0.507528 0.5999,0.9797889 1.36534,1.9673441 2.89747,2.5703944 5.06337,1.9929527 z M 116.39948,7.5576407 C 115.82276,7.3269043 114.77174,6.4106842 114.45376,5.861462 l -0.2801,-0.4837884 0.59575,-0.1657291 c 0.95352,-0.2652578 1.58548,-0.2143447 1.6967,0.1366915 0.16202,0.5113562 1.31168,1.5820926 1.99113,1.8544268 0.45804,0.1835923 0.58206,0.2957289 0.43227,0.3908506 -0.28433,0.180563 -2.01091,0.1554116 -2.49003,-0.036273 z m 4.66537,0.061391 c -0.22814,-0.058591 -0.13602,-0.1486766 0.39456,-0.3858545 0.78212,-0.3496261 1.63424,-1.1074128 1.97229,-1.7539513 0.18906,-0.3615888 0.32626,-0.4321215 0.81511,-0.4190149 0.77518,0.020784 1.33892,0.1862888 1.41519,0.415473 0.0968,0.291052 -1.23342,1.6409282 -1.93217,1.9606569 -0.59978,0.2744393 -1.9479,0.3668563 -2.66498,0.1826908 z m -1.49908,-0.8097655 c -1.23947,-1.7437109 -1.2606,-3.2370032 -0.0702,-4.9637107 l 0.40691,-0.59025 0.5217,0.6604285 c 0.55854,0.7070518 0.85942,1.6249514 0.85942,2.6218309 0,0.6332777 -0.57458,1.9221507 -1.0957,2.4578417 -0.27419,0.281855 -0.29355,0.2760626 -0.62209,-0.1861404 z M 121.1783,6.122415 c 0.39135,-0.7601517 0.49349,-1.1560312 0.49702,-1.926438 l 0.004,-0.9696727 0.70938,-0.3492077 c 1.05204,-0.5178856 1.10394,-0.4917754 1.10394,0.5553154 0,1.6037158 -0.92014,2.9279912 -2.43546,3.5051205 -0.36785,0.1400983 -0.36653,0.1311824 0.12067,-0.8151175 z m -3.14515,0.3054095 c -0.94461,-0.637891 -1.47871,-1.6232003 -1.59876,-2.9493582 -0.10012,-1.1061208 -0.0742,-1.1217202 1.05446,-0.6353235 l 0.76179,0.3282874 0.0599,1.0621788 c 0.0411,0.72897 0.18745,1.3203346 0.46646,1.8851093 0.48228,0.976203 0.33477,1.0375003 -0.74387,0.3091062 z" id="path74"></path></g></g></svg>